<?xml version="1.0" encoding="UTF-8"?>
<svg width="44px" height="14px" viewBox="0 0 44 14" version="1.1" xmlns="http://www.w3.org/2000/svg" xmlns:xlink="http://www.w3.org/1999/xlink">
    <!-- Generator: sketchtool 50.2 (55047) - http://www.bohemiancoding.com/sketch -->
    <title>4BBA2877-0089-4EF8-8DE0-55BDA219D9BC</title>
    <desc>Created with sketchtool.</desc>
    <defs></defs>
    <g id="Dashboard---Configurar-Integracion" stroke="none" stroke-width="1" fill="none" fill-rule="evenodd">
        <g id="Desktop---configurarintegracion1" transform="translate(-618.000000, -9.000000)" fill="#FFFFFF">
            <g id="status-bar">
                <g id="bigote" transform="translate(618.000000, 9.000000)">
                    <path d="M43.428,4.44330644 C41.113,6.49427179 39.06,6.62326961 36.594,4.78530066 C35.46,3.94131492 34.444,2.93533192 33.308,2.09534611 C32.428,1.44635708 31.498,0.801367976 30.495,0.400374751 C28.758,-0.29561349 26.996,-0.0596174769 25.41,0.917366016 C24.333,1.58035481 23.351,2.40634086 22.352,3.19332756 C22.212,3.3033257 22.106,3.36232471 22,3.35832477 C21.894,3.36232471 21.789,3.30232572 21.648,3.19332756 C20.648,2.40634086 19.668,1.58035481 18.59,0.917366016 C17.005,-0.0596174769 15.242,-0.29561349 13.505,0.400374751 C12.5,0.801367976 11.57,1.44635708 10.692,2.0963461 C9.555,2.9363319 8.54,3.94131492 7.406,4.78630065 C4.94,6.62226963 2.886,6.49327181 0.572,4.44230646 C0.382,4.27230933 0.191,4.10331219 0,3.93631501 C0.335208965,5.82021521 1.08121057,7.60717466 2.185,9.17022658 C3.585,11.1761927 5.421,12.6121684 7.725,13.4011551 C13.112,15.2451239 19.915,12.6751674 22,7.8252493 C24.084,12.6751674 30.888,15.2451239 36.275,13.4011551 C38.579,12.6121684 40.415,11.1761927 41.815,9.17122656 C42.918924,7.60787916 43.6649315,5.82056418 44,3.93631501 L43.428,4.44230646" id="Shape"></path>
                </g>
            </g>
        </g>
    </g>
</svg>