<?xml version="1.0" encoding="UTF-8"?>
<svg width="24px" height="24px" viewBox="0 0 24 24" version="1.1" xmlns="http://www.w3.org/2000/svg" xmlns:xlink="http://www.w3.org/1999/xlink">
    <!-- Generator: sketchtool 50.2 (55047) - http://www.bohemiancoding.com/sketch -->
    <title>4BD81749-611B-4612-8379-2F85D4CD677C</title>
    <desc>Created with sketchtool.</desc>
    <defs></defs>
    <g id="Dashboard---Cargar-archivo" stroke="none" stroke-width="1" fill="none" fill-rule="evenodd" stroke-linecap="round" stroke-linejoin="round">
        <g id="Desktop---cargararchivo1" transform="translate(-24.000000, -192.000000)" stroke="#9AA9B9">
            <g id="side-nav" transform="translate(0.000000, 32.000000)">
                <g id="list" transform="translate(24.000000, 160.000000)">
                    <g id="icons">
                        <g id="configurar-integracion">
                            <path d="M5.635875,18.3640969 L7.62459375,16.3753781 L5.635875,18.3640969 Z M18.1875,12 C18.1875,15.4171875 15.4169063,18.1875 12,18.1875 C8.5828125,18.1875 5.8125,15.4171875 5.8125,12 C5.8125,8.5828125 8.5828125,5.8125 12,5.8125 C15.4169063,5.8125 18.1875,8.5828125 18.1875,12 Z M12,5.8125 L12,3 L12,5.8125 Z M12,21 L12,18.1875 L12,21 Z M18.1875,12 L21,12 L18.1875,12 Z M3,12 L5.8125,12 L3,12 Z M16.3750125,16.3752937 L18.3637312,18.3640125 L16.3750125,16.3752937 Z M5.635875,5.63615625 L7.62459375,7.62459375 L5.635875,5.63615625 Z M16.3750125,7.62470625 L18.3637312,5.63626875 L16.3750125,7.62470625 Z" id="Settings-3"></path>
                        </g>
                    </g>
                </g>
            </g>
        </g>
    </g>
</svg>