<?xml version="1.0" encoding="UTF-8"?>
<svg width="24px" height="24px" viewBox="0 0 24 24" version="1.1" xmlns="http://www.w3.org/2000/svg" xmlns:xlink="http://www.w3.org/1999/xlink">
    <!-- Generator: sketchtool 50.2 (55047) - http://www.bohemiancoding.com/sketch -->
    <title>56233868-F16E-43F5-B1DE-4F92AF34A58E</title>
    <desc>Created with sketchtool.</desc>
    <defs></defs>
    <g id="Dashboard---Configurar-Integracion" stroke="none" stroke-width="1" fill="none" fill-rule="evenodd" stroke-linecap="round" stroke-linejoin="round">
        <g id="Desktop---configurarintegracion1" transform="translate(-24.000000, -288.000000)" stroke="#9AA9B9">
            <g id="side-nav" transform="translate(0.000000, 32.000000)">
                <g id="list" transform="translate(24.000000, 160.000000)">
                    <g id="icons">
                        <g id="mapeo" transform="translate(0.000000, 96.000000)">
                            <path d="M3,18.6684375 L3,5.3315625 C3,4.044 4.044,3 5.3315625,3 L18.6684375,3 C19.956,3 21,4.044 21,5.3315625 L21,18.6684375 C21,19.9562813 19.956,21 18.6684375,21 L5.3315625,21 C4.044,21 3,19.9562813 3,18.6684375 Z M16.6565719,12.0000281 C16.6565719,14.5720594 14.5719469,16.6566844 11.9999156,16.6566844 C9.42844688,16.6566844 7.34354063,14.5720594 7.34354063,12.0000281 C7.34354063,9.42827813 9.42844688,7.34337188 11.9999156,7.34337188 C14.5719469,7.34337188 16.6565719,9.42827813 16.6565719,12.0000281 Z M6.65625,6.234375 C6.65625,6.46725 6.46739063,6.65625 6.234375,6.65625 C6.0015,6.65625 5.8125,6.46725 5.8125,6.234375 C5.8125,6.00135937 6.0015,5.8125 6.234375,5.8125 C6.46739063,5.8125 6.65625,6.00135937 6.65625,6.234375 M18.1875,6.234375 C18.1875,6.46725 17.9986406,6.65625 17.765625,6.65625 C17.53275,6.65625 17.34375,6.46725 17.34375,6.234375 C17.34375,6.00135937 17.53275,5.8125 17.765625,5.8125 C17.9986406,5.8125 18.1875,6.00135937 18.1875,6.234375 M6.65625,17.765625 C6.65625,17.9985 6.46739063,18.1875 6.234375,18.1875 C6.0015,18.1875 5.8125,17.9985 5.8125,17.765625 C5.8125,17.5326094 6.0015,17.34375 6.234375,17.34375 C6.46739063,17.34375 6.65625,17.5326094 6.65625,17.765625 M18.1875,17.765625 C18.1875,17.9985 17.9986406,18.1875 17.765625,18.1875 C17.53275,18.1875 17.34375,17.9985 17.34375,17.765625 C17.34375,17.5326094 17.53275,17.34375 17.765625,17.34375 C17.9986406,17.34375 18.1875,17.5326094 18.1875,17.765625" id="Abstract-26"></path>
                        </g>
                    </g>
                </g>
            </g>
        </g>
    </g>
</svg>